<svg xmlns="http://www.w3.org/2000/svg" viewBox="0 0 445.65 183.78">
    <defs>
        <style>.cls-1{fill:#444444;}</style>
    </defs>
    <title>Wally Logo</title>
    <g id="Layer_2" data-name="Layer 2">
        <g id="Layer_1-2" data-name="Layer 1">
            <path class="cls-1" d="M186.78,53.89q10.77,0,18.14,2.69a29.11,29.11,0,0,1,11.77,7.55A28.34,28.34,0,0,1,223,75.9a57.48,57.48,0,0,1,1.88,15.18v57q-5,1.08-15.18,2.6a154.63,154.63,0,0,1-22.9,1.53,68.61,68.61,0,0,1-15.45-1.62,32.43,32.43,0,0,1-12-5.21,24.44,24.44,0,0,1-7.72-9.34,32.33,32.33,0,0,1-2.79-14.19A27.41,27.41,0,0,1,152,108.14a25.82,25.82,0,0,1,8.53-9.07A37,37,0,0,1,173,94a70.89,70.89,0,0,1,14.83-1.53,69.12,69.12,0,0,1,7.54.45,70.73,70.73,0,0,1,8.45,1.53V90.9a28.55,28.55,0,0,0-.9-7.19,15,15,0,0,0-3.15-6,14.78,14.78,0,0,0-5.93-4,25.59,25.59,0,0,0-9.25-1.44,81.9,81.9,0,0,0-13.83,1.08,60.65,60.65,0,0,0-10.24,2.52l-2.7-17.61a87.39,87.39,0,0,1,12-2.87A94.23,94.23,0,0,1,186.78,53.89Zm1.79,81a80.88,80.88,0,0,0,15.28-1.08V109.76a42.55,42.55,0,0,0-5.21-1.08,49.89,49.89,0,0,0-7.55-.54,51.61,51.61,0,0,0-7.28.54,22.58,22.58,0,0,0-6.64,2,12,12,0,0,0-4.76,4,11.3,11.3,0,0,0-1.8,6.56q0,7.72,4.85,10.69T188.57,134.91Z" />
            <path class="cls-1" d="M287.74,152a58.85,58.85,0,0,1-16.08-2.16,24.63,24.63,0,0,1-10.15-5.66,20,20,0,0,1-5.3-9.16,46.45,46.45,0,0,1-1.53-12.48V14.37l21.74-3.6V118.38a29.7,29.7,0,0,0,.63,6.65,10.54,10.54,0,0,0,2.25,4.58,10,10,0,0,0,4.4,2.88,33.69,33.69,0,0,0,7.09,1.52Z" />
            <path class="cls-1" d="M344.69,152a58.85,58.85,0,0,1-16.08-2.16,24.63,24.63,0,0,1-10.15-5.66,20,20,0,0,1-5.3-9.16,46.45,46.45,0,0,1-1.53-12.48V14.37l21.74-3.6V118.38A29.7,29.7,0,0,0,334,125a10.54,10.54,0,0,0,2.25,4.58,10,10,0,0,0,4.4,2.88,33.69,33.69,0,0,0,7.09,1.52Z" />
            <path class="cls-1" d="M445.65,56.23q-14.52,53.54-33.71,97a97.25,97.25,0,0,1-7.38,13.83,40.74,40.74,0,0,1-8.45,9.52,30,30,0,0,1-10.43,5.48,49.91,49.91,0,0,1-23.29.63,33.4,33.4,0,0,1-7.46-2.34l3.95-17.42a35.43,35.43,0,0,0,12.81,2.51q8.49,0,13.27-4t8.39-12.49q-10.29-19.75-19.76-43.11a475.93,475.93,0,0,1-16.87-49.58H379.9q1.8,7.55,4.42,16.34T390,90.45q3.06,9.08,6.49,18t6.85,16.71q5.73-16,10.73-34t9.12-34.94Z" />
            <path class="cls-1" d="M22.78,38,0,37.92C0,25,7.38,1.89,34.25.08c10.33-.7,14.47,3.38,19.54,6.35,4,2.32,7.8,5.43,12.56,5.48s7.43-1.62,11.53-4.38C83.38,3.82,88.52.9,96.36.19c10.49-1,19.8,3,27.25,10.6a38.38,38.38,0,0,1,10.61,27.38l-22.13-.11c.1-3.52-1.34-9.12-3.63-12.13-4.08-5.34-8.89-6.13-14-5.17-2.56.48-7.12,3.13-10.74,5.65-5.27,3.66-9,5.2-15.42,5.37-.72,0-1.43,0-2.15,0-5.78-.33-11-2.87-15.27-5.94-3.91-2.84-9.09-5.52-12.92-5.44C23.77,20.68,23.09,35.41,22.78,38Z" />
            <path class="cls-1" d="M69,103.59c-.81-2.94-3.28-3.21-4.09-.27-1.9,6.92-4,13.37-6,20.05-2.14,6.87-4.18,13.83-6.28,20.17-1.78,5.33-7.54,8.63-13.06,8.63h0a12.88,12.88,0,0,1-12-8.22q-2-5.13-4.15-10.93-3.95-10.76-7.88-23T7.7,84.32Q3.76,70.82,0,56.77H22.89q1.62,7.66,3.78,16.51t4.49,18.06q2.34,9.21,4.85,18,1.65,5.75,3.31,10.88a1.76,1.76,0,0,0,3.36,0q1.84-5.94,3.65-12.14c1.73-6,2.9-8.94,4.23-15,3.83-17.41,28.61-19.53,33.89.23C86,99.23,86.8,102.07,88.52,108q1.77,6.1,3.58,12a1.76,1.76,0,0,0,3.37,0q1.55-5,3.17-10.68,2.51-8.76,4.94-18t4.58-18.06q2.16-8.85,3.77-16.51h22.36q-3.76,14.06-7.7,27.55T118.71,110q-3.94,12.22-7.89,23-2.14,5.88-4.25,11a12.86,12.86,0,0,1-11.88,8.1h0c-5.49,0-11.21-3-13-8.28q-3.21-9.54-6.54-19.88Q71.91,114,69,103.59Z" />
        </g>
    </g>
</svg>